<svg xmlns="http://www.w3.org/2000/svg" width="47" height="34" viewBox="0 0 47 34">
  <g id="Group_2" data-name="Group 2" transform="translate(-464 -756)">
    <g id="matic" transform="translate(479 756)">
      <circle id="Ellipse_6" data-name="Ellipse 6" cx="16" cy="16" r="16" transform="translate(0 2)" fill="#6f41d8"/>
      <path id="Path_48" data-name="Path 48" d="M20.435,13.479a1.061,1.061,0,0,0-1.2,0l-2.754,1.9-1.87,1.241-2.754,1.9a1.057,1.057,0,0,1-1.2,0l-2.188-1.49a1.481,1.481,0,0,1-.6-1.2V12.9a1.394,1.394,0,0,1,.6-1.2l2.152-1.448a1.06,1.06,0,0,1,1.2,0L13.976,11.7a1.483,1.483,0,0,1,.6,1.2v1.9l1.87-1.284v-1.9a1.392,1.392,0,0,0-.6-1.2L11.858,7.687a1.057,1.057,0,0,0-1.2,0L6.6,10.418a1.392,1.392,0,0,0-.6,1.2v5.5a1.4,1.4,0,0,0,.6,1.2l4.059,2.731a1.061,1.061,0,0,0,1.2,0l2.754-1.863,1.87-1.283,2.754-1.862a1.057,1.057,0,0,1,1.2,0l2.153,1.448a1.479,1.479,0,0,1,.6,1.2v2.938a1.392,1.392,0,0,1-.6,1.2l-2.152,1.49a1.059,1.059,0,0,1-1.2,0l-2.153-1.448a1.483,1.483,0,0,1-.6-1.2v-1.9l-1.87,1.284v1.9a1.393,1.393,0,0,0,.6,1.2l4.059,2.731a1.057,1.057,0,0,0,1.2,0l4.059-2.731a1.481,1.481,0,0,0,.6-1.2v-5.5a1.392,1.392,0,0,0-.6-1.2l-4.094-2.774Z" transform="translate(0.875 1.094)" fill="#fff"/>
    </g>
    <g id="Group_6" data-name="Group 6" transform="translate(463 756)">
      <circle id="Ellipse_3" data-name="Ellipse 3" cx="16" cy="16" r="16" transform="translate(1)" fill="#31cb9e"/>
      <path id="Path_12" data-name="Path 12" d="M187.456,350.42h-2.434a1.323,1.323,0,0,0-.949.42l-1.809,1.895a1.3,1.3,0,0,1-1.91,0h0a1.3,1.3,0,0,0-1.471-.308,1.425,1.425,0,0,0-.833,1.314v6.588a1.423,1.423,0,0,0,.832,1.316,1.3,1.3,0,0,0,1.471-.31l8.056-8.486a1.478,1.478,0,0,0,.294-1.551A1.351,1.351,0,0,0,187.456,350.42Z" transform="translate(-164.029 -332.587)" fill="#fff"/>
      <path id="Path_13" data-name="Path 13" d="M180.286,362.576l2.966,3.957a2.133,2.133,0,0,1,0,2.417l-2.966,3.957a1.058,1.058,0,0,1-1.4.373,1.786,1.786,0,0,1-.79-1.58v-7.914a1.788,1.788,0,0,1,.79-1.579A1.059,1.059,0,0,1,180.286,362.576Z" transform="translate(-164.228 -344.243)" fill="#fff"/>
      <path id="Path_14" data-name="Path 14" d="M152.031,292.736h2.562a1.351,1.351,0,0,0,1-.466l1.9-2.132a1.313,1.313,0,0,1,2.01,0h0a1.31,1.31,0,0,0,1.549.344,1.611,1.611,0,0,0,.878-1.474v-7.395a1.609,1.609,0,0,0-.878-1.476,1.309,1.309,0,0,0-1.549.348l-8.48,9.525a1.745,1.745,0,0,0-.307,1.74A1.432,1.432,0,0,0,152.031,292.736Z" transform="translate(-142.25 -276.569)" fill="#fff"/>
      <path id="Path_15" data-name="Path 15" d="M186.447,290.909l-3.557-3.979a1.868,1.868,0,0,1,0-2.43l3.55-3.979a1.414,1.414,0,0,1,1.671-.374,1.732,1.732,0,0,1,.947,1.588v7.958a1.733,1.733,0,0,1-.945,1.578A1.415,1.415,0,0,1,186.447,290.909Z" transform="translate(-169.113 -276.569)" fill="#fff"/>
    </g>
  </g>
</svg>
