<svg xmlns="http://www.w3.org/2000/svg" width="87" height="58" viewBox="0 0 87 58">
  <g id="Group_23" data-name="Group 23" transform="translate(-466 -882)">
    <g id="matic" transform="translate(495 882)">
      <circle id="Ellipse_6" data-name="Ellipse 6" cx="29" cy="29" r="29" fill="#6f41d8"/>
      <path id="Path_48" data-name="Path 48" d="M33.354,16.912a2.355,2.355,0,0,0-2.273,0l-5.218,3L22.32,21.864l-5.218,3a2.345,2.345,0,0,1-2.273,0l-4.147-2.345a2.233,2.233,0,0,1-1.136-1.889V16a2.1,2.1,0,0,1,1.136-1.889l4.078-2.28a2.352,2.352,0,0,1,2.277,0l4.078,2.28A2.235,2.235,0,0,1,22.253,16v3L25.8,16.978v-3a2.1,2.1,0,0,0-1.136-1.889L17.1,7.794a2.345,2.345,0,0,0-2.273,0l-7.692,4.3A2.1,2.1,0,0,0,6,13.982v8.664a2.1,2.1,0,0,0,1.136,1.89l7.692,4.3a2.355,2.355,0,0,0,2.273,0L22.32,25.9l3.543-2.019,5.218-2.931a2.345,2.345,0,0,1,2.273,0l4.08,2.28a2.229,2.229,0,0,1,1.136,1.889v4.625a2.1,2.1,0,0,1-1.136,1.889l-4.078,2.345a2.349,2.349,0,0,1-2.275,0L27,31.7a2.235,2.235,0,0,1-1.138-1.889v-3L22.32,28.835v3a2.1,2.1,0,0,0,1.136,1.889l7.692,4.3a2.345,2.345,0,0,0,2.273,0l7.692-4.3a2.233,2.233,0,0,0,1.136-1.889V23.167a2.1,2.1,0,0,0-1.136-1.889l-7.757-4.366Z" transform="translate(4.875 6.094)" fill="#fff"/>
    </g>
    <g id="Group_11" data-name="Group 11" transform="translate(466 882)">
      <circle id="Ellipse_3" data-name="Ellipse 3" cx="29" cy="29" r="29" fill="#31cb9e"/>
      <g id="VESQ_Logo_1_" data-name="VESQ Logo (1)" transform="translate(16.04 10.396)">
        <path id="Path_12" data-name="Path 12" d="M194.031,350.42H189.9a2.3,2.3,0,0,0-1.613.678l-3.074,3.055a2.293,2.293,0,0,1-3.245,0h0a2.294,2.294,0,0,0-3.915,1.624V366.4a2.291,2.291,0,0,0,3.915,1.621l13.688-13.685a2.294,2.294,0,0,0-1.621-3.917Z" transform="translate(-170.841 -331.923)" fill="#fff"/>
        <path id="Path_13" data-name="Path 13" d="M182.014,362.747l5.312,5.312a2.294,2.294,0,0,1,0,3.245l-5.312,5.312a2.291,2.291,0,0,1-3.915-1.621V364.37a2.294,2.294,0,0,1,3.915-1.624Z" transform="translate(-170.878 -340.517)" fill="#fff"/>
        <path id="Path_14" data-name="Path 14" d="M152.9,298.292h4.135a2.3,2.3,0,0,0,1.621-.67l3.063-3.063a2.293,2.293,0,0,1,3.245,0h0a2.3,2.3,0,0,0,3.917-1.624V282.31a2.294,2.294,0,0,0-3.917-1.621L151.28,294.375a2.3,2.3,0,0,0,1.624,3.917Z" transform="translate(-150.61 -280.016)" fill="#fff"/>
        <path id="Path_15" data-name="Path 15" d="M188.436,294.559l-5.323-5.312a2.294,2.294,0,0,1,0-3.245l5.312-5.312a2.294,2.294,0,0,1,3.917,1.621v10.624a2.3,2.3,0,0,1-3.907,1.624Z" transform="translate(-174.078 -280.016)" fill="#fff"/>
      </g>
    </g>
  </g>
</svg>
