<svg xmlns="http://www.w3.org/2000/svg" width="116.48" height="40.877" viewBox="0 0 116.48 40.877">
  <g id="logo" transform="translate(-0.022 -0.016)">
    <path id="Path_24" data-name="Path 24" d="M195.815,350.419h-4.6a2.561,2.561,0,0,0-1.8.754l-3.413,3.4a2.549,2.549,0,0,1-3.607,0h0a2.549,2.549,0,0,0-4.352,1.8v11.809a2.547,2.547,0,0,0,4.352,1.8l15.215-15.212a2.549,2.549,0,0,0-1.8-4.354Z" transform="translate(-170.016 -329.843)" fill="#31cb9e"/>
    <path id="Path_25" data-name="Path 25" d="M182.452,362.821l5.9,5.9a2.549,2.549,0,0,1,0,3.607l-5.9,5.9a2.547,2.547,0,0,1-4.352-1.8v-11.81a2.549,2.549,0,0,1,4.352-1.8Z" transform="translate(-170.051 -338.095)" fill="#31cb9e"/>
    <path id="Path_26" data-name="Path 26" d="M153.16,300.331h4.6a2.558,2.558,0,0,0,1.8-.743l3.406-3.406a2.549,2.549,0,0,1,3.606,0h0a2.552,2.552,0,0,0,4.354-1.8v-11.81a2.549,2.549,0,0,0-4.354-1.8l-15.215,15.213a2.552,2.552,0,0,0,1.8,4.354Z" transform="translate(-150.59 -280)" fill="#31cb9e"/>
    <path id="Path_27" data-name="Path 27" d="M189.1,296.181l-5.917-5.9a2.549,2.549,0,0,1,0-3.607l5.9-5.9a2.549,2.549,0,0,1,4.354,1.8v11.809a2.552,2.552,0,0,1-4.343,1.8Z" transform="translate(-173.124 -280)" fill="#31cb9e"/>
    <path id="Path_28" data-name="Path 28" d="M298.943,315.692a1.425,1.425,0,0,1,.447.292,3.56,3.56,0,0,1,.292.292.978.978,0,0,1,.167.318,1.042,1.042,0,0,1,.058.336,2.09,2.09,0,0,1-.038.292,1.052,1.052,0,0,1-.094.292l-3.242,8.183-3.247,8.212a1.276,1.276,0,0,1-1.288.838,1.507,1.507,0,0,1-.765-.2,1.37,1.37,0,0,1-.505-.616l-1.752-4.124-1.752-4.144-1.734-4.144-1.752-4.161a2.094,2.094,0,0,1-.056-.467,1.193,1.193,0,0,1,.035-.263l.076-.277a1.379,1.379,0,0,1,.26-.412,1.4,1.4,0,0,1,.488-.336,1.225,1.225,0,0,1,.523-.111,1.462,1.462,0,0,1,.277.035c.094.02.207.058.318.094a1.813,1.813,0,0,1,.372.292,1.416,1.416,0,0,1,.26.429l5.66,13.3,1.288-3.213,1.27-3.213,1.343-3.417,1.355-3.434-.017.017a1.682,1.682,0,0,1,.727-.783H297.9a.877.877,0,0,1,.292-.111,1.651,1.651,0,0,1,.336-.02,1.538,1.538,0,0,1,.292.038,1.883,1.883,0,0,1,.222.056Z" transform="translate(-244.799 -305.097)" fill="#31cb9e"/>
    <path id="Path_29" data-name="Path 29" d="M367.18,324.763v.167a.621.621,0,0,1-.056.225l.02-.017a1.259,1.259,0,0,1-1.326,1.008h-14.8a6.507,6.507,0,0,0,.652,1.977,7.01,7.01,0,0,0,1.326,1.7,6.5,6.5,0,0,0,4.672,1.9,6.422,6.422,0,0,0,1.624-.208,8.2,8.2,0,0,0,1.513-.557h-.02a6.968,6.968,0,0,0,1.326-.9,6.277,6.277,0,0,0,1.1-1.233,1.525,1.525,0,0,1,.952-.561h.2a1.46,1.46,0,0,1,.765.225,1.285,1.285,0,0,1,.616.9.417.417,0,0,1,.038.131v.149a1.367,1.367,0,0,1-.26.783,9.253,9.253,0,0,1-1.512,1.679,9.8,9.8,0,0,1-1.887,1.288,9.52,9.52,0,0,1-13.96-8.434V324.7a8.96,8.96,0,0,1,2.891-6.588,9.526,9.526,0,0,1,15.394,3.026,8.945,8.945,0,0,1,.765,3.639v.038Zm-2.92-1.326a6.788,6.788,0,0,0-.783-1.849,7.382,7.382,0,0,0-1.233-1.568,6.425,6.425,0,0,0-2.129-1.288,6.876,6.876,0,0,0-2.465-.447,6.664,6.664,0,0,0-4.568,1.8v-.02a6.676,6.676,0,0,0-2.015,3.417h13.156Z" transform="translate(-290.452 -305.06)" fill="#31cb9e"/>
    <path id="Path_30" data-name="Path 30" d="M438.9,326.958a4.536,4.536,0,0,1,.468,2.2v.372a2.168,2.168,0,0,1-.012.38,3.7,3.7,0,0,1-.292,1.139,4.945,4.945,0,0,1-.671,1.122,6.7,6.7,0,0,1-2.725,2.07,10,10,0,0,1-3.919.689,8.469,8.469,0,0,1-4.255-1.063,8.251,8.251,0,0,1-1.738-1.288,6.9,6.9,0,0,1-1.288-1.679h0a1.276,1.276,0,0,1-.222-.71v-.2a.636.636,0,0,1,.056-.225,1.643,1.643,0,0,1,.225-.447,1.143,1.143,0,0,1,.429-.336l-.02.017a1.215,1.215,0,0,1,.671-.225,1.142,1.142,0,0,1,.45.094v-.017a1.37,1.37,0,0,1,.447.26,1.68,1.68,0,0,1,.336.395,6.671,6.671,0,0,0,.841,1.081,4.7,4.7,0,0,0,1.119.858,6.859,6.859,0,0,0,1.381.561,5.547,5.547,0,0,0,1.5.186,7.083,7.083,0,0,0,2.629-.447,4.347,4.347,0,0,0,1.773-1.233,2,2,0,0,0,.412-.785v-.105a1.535,1.535,0,0,0,.035-.292v-.225a3.508,3.508,0,0,0-.017-.447.877.877,0,0,0-.111-.336,3.145,3.145,0,0,0-.935-.935,4,4,0,0,0-1.46-.523,10.917,10.917,0,0,0-2.2-.186,12.475,12.475,0,0,1-3.078-.339,6.153,6.153,0,0,1-2.146-.949,8.625,8.625,0,0,1-1.122-.991,4.359,4.359,0,0,1-.727-1.008,4.208,4.208,0,0,1-.353-2.018l.017-.485a3.231,3.231,0,0,1,.292-1.119,5.386,5.386,0,0,1,.671-1.139,6.717,6.717,0,0,1,2.725-2.074,10.016,10.016,0,0,1,3.9-.707,8.538,8.538,0,0,1,2.92.5,9.147,9.147,0,0,1,2.539,1.4,1.909,1.909,0,0,1,.391.395,1.224,1.224,0,0,1,.169.616,2.208,2.208,0,0,1-.056.5,1.026,1.026,0,0,1-.225.412,1.2,1.2,0,0,1-.412.354,1.334,1.334,0,0,1-.616.149,1.389,1.389,0,0,1-.876-.26c-.017,0-.038-.02-.056-.038a5.549,5.549,0,0,0-3.7-1.343,6.944,6.944,0,0,0-2.629.447,4.521,4.521,0,0,0-1.752,1.233V320.2a1.676,1.676,0,0,0-.395.783v.225a3.479,3.479,0,0,0,.076.952v-.038a3,3,0,0,0,.952.935,4.531,4.531,0,0,0,1.46.54,10.508,10.508,0,0,0,2.168.2,13.6,13.6,0,0,1,3.04.318,6.491,6.491,0,0,1,2.184.9,8.178,8.178,0,0,1,1.025.876,4.572,4.572,0,0,1,.727.935h-.021Z" transform="translate(-344.309 -305.37)" fill="#31cb9e"/>
    <path id="Path_31" data-name="Path 31" d="M494.366,315.467a9.229,9.229,0,0,1,3.642.692,9.508,9.508,0,0,1,3.055,2.091,9.091,9.091,0,0,1,2.763,6.685V340.22a1.583,1.583,0,0,1-.056.447.945.945,0,0,1-.169.339,1.633,1.633,0,0,1-1.119.584,2.03,2.03,0,0,1-1.25-.672.459.459,0,0,1-.114-.225,2.987,2.987,0,0,1-.017-.45v-8.649a9.971,9.971,0,0,1-.841.765,8.606,8.606,0,0,1-.929.654,10.911,10.911,0,0,1-2.336,1.008,8.862,8.862,0,0,1-2.52.356,8.981,8.981,0,0,1-3.63-.692,10.356,10.356,0,0,1-3.078-2.091,9.414,9.414,0,0,1,0-13.326,9.9,9.9,0,0,1,3.078-2.091,9.2,9.2,0,0,1,3.621-.689Zm.094,16.165a6.778,6.778,0,0,0,2.576-.485,6.329,6.329,0,0,0,2.184-1.46,6.425,6.425,0,0,0,1.942-4.719,6.522,6.522,0,0,0-1.942-4.757,6.717,6.717,0,0,0-9.5,0,6.512,6.512,0,0,0-1.942,4.757,6.661,6.661,0,0,0,6.718,6.685Z" transform="translate(-387.325 -305.098)" fill="#31cb9e"/>
  </g>
</svg>
