<svg xmlns="http://www.w3.org/2000/svg" width="32" height="32" viewBox="0 0 32 32">
  <g id="matic" transform="translate(0 -2)">
    <circle id="Ellipse_6" data-name="Ellipse 6" cx="16" cy="16" r="16" transform="translate(0 2)" fill="#6f41d8"/>
    <path id="Path_48" data-name="Path 48" d="M20.435,13.479a1.061,1.061,0,0,0-1.2,0l-2.754,1.9-1.87,1.241-2.754,1.9a1.057,1.057,0,0,1-1.2,0l-2.188-1.49a1.481,1.481,0,0,1-.6-1.2V12.9a1.394,1.394,0,0,1,.6-1.2l2.152-1.448a1.06,1.06,0,0,1,1.2,0L13.976,11.7a1.483,1.483,0,0,1,.6,1.2v1.9l1.87-1.284v-1.9a1.392,1.392,0,0,0-.6-1.2L11.858,7.687a1.057,1.057,0,0,0-1.2,0L6.6,10.418a1.392,1.392,0,0,0-.6,1.2v5.5a1.4,1.4,0,0,0,.6,1.2l4.059,2.731a1.061,1.061,0,0,0,1.2,0l2.754-1.863,1.87-1.283,2.754-1.862a1.057,1.057,0,0,1,1.2,0l2.153,1.448a1.479,1.479,0,0,1,.6,1.2v2.938a1.392,1.392,0,0,1-.6,1.2l-2.152,1.49a1.059,1.059,0,0,1-1.2,0l-2.153-1.448a1.483,1.483,0,0,1-.6-1.2v-1.9l-1.87,1.284v1.9a1.393,1.393,0,0,0,.6,1.2l4.059,2.731a1.057,1.057,0,0,0,1.2,0l4.059-2.731a1.481,1.481,0,0,0,.6-1.2v-5.5a1.392,1.392,0,0,0-.6-1.2l-4.094-2.774Z" transform="translate(0.875 1.094)" fill="#fff"/>
  </g>
</svg>
