<svg xmlns="http://www.w3.org/2000/svg" width="112" height="112" viewBox="0 0 112 112">
  <g id="Group_6" data-name="Group 6" transform="translate(-1009 -566.395)">
    <circle id="Ellipse_3" data-name="Ellipse 3" cx="56" cy="56" r="56" transform="translate(1009 566.395)" fill="#31cb9e"/>
    <g id="VESQ_Logo_1_" data-name="VESQ Logo (1)" transform="translate(1040.335 586.238)">
      <path id="Path_12" data-name="Path 12" d="M209.27,350.42h-8.078a4.5,4.5,0,0,0-3.151,1.324l-6,5.969a4.48,4.48,0,0,1-6.338,0h0a4.481,4.481,0,0,0-7.647,3.172V381.64a4.475,4.475,0,0,0,7.647,3.167l26.74-26.735a4.481,4.481,0,0,0-3.167-7.652Z" transform="translate(-163.967 -314.286)" fill="#fff"/>
      <path id="Path_13" data-name="Path 13" d="M185.747,363.387l10.378,10.378a4.481,4.481,0,0,1,0,6.339l-10.378,10.378a4.475,4.475,0,0,1-7.647-3.167V366.559a4.481,4.481,0,0,1,7.647-3.172Z" transform="translate(-163.991 -319.959)" fill="#fff"/>
      <path id="Path_14" data-name="Path 14" d="M155.091,315.719h8.078a4.5,4.5,0,0,0,3.167-1.309l5.984-5.984a4.481,4.481,0,0,1,6.339,0h0a4.486,4.486,0,0,0,7.652-3.172V284.5a4.481,4.481,0,0,0-7.652-3.167l-26.74,26.735a4.486,4.486,0,0,0,3.172,7.652Z" transform="translate(-150.61 -280.016)" fill="#fff"/>
      <path id="Path_15" data-name="Path 15" d="M194.153,308.426l-10.4-10.378a4.481,4.481,0,0,1,0-6.339l10.378-10.378a4.481,4.481,0,0,1,7.652,3.167v20.755a4.486,4.486,0,0,1-7.632,3.172Z" transform="translate(-166.104 -280.016)" fill="#fff"/>
    </g>
  </g>
</svg>
