<svg id="AAVE" xmlns="http://www.w3.org/2000/svg" width="58" height="58" viewBox="0 0 58 58">
  <circle id="Ellipse_10" data-name="Ellipse 10" cx="29" cy="29" r="29" fill="#2ebac6"/>
  <path id="Path_52" data-name="Path 52" d="M34.255,33.415l-9.7-24.527A2.623,2.623,0,0,0,22.128,7h-.857A2.62,2.62,0,0,0,18.84,8.889L14.622,19.575H11.431a1.787,1.787,0,0,0-1.74,1.813v.025a1.788,1.788,0,0,0,1.74,1.814h1.715L9.12,33.415a2.238,2.238,0,0,0-.12.7,1.971,1.971,0,0,0,.477,1.367A1.63,1.63,0,0,0,10.764,36a1.691,1.691,0,0,0,1-.348,2.2,2.2,0,0,0,.689-.919l4.433-11.506H19.96a1.791,1.791,0,0,0,1.74-1.814v-.049a1.789,1.789,0,0,0-1.74-1.814H18.316L21.7,10.728l9.22,24a2.2,2.2,0,0,0,.691.919,1.688,1.688,0,0,0,1,.348,1.635,1.635,0,0,0,1.287-.522,1.978,1.978,0,0,0,.475-1.367,1.711,1.711,0,0,0-.118-.7Z" transform="translate(7.313 5.688)" fill="#fff"/>
</svg>
