<svg xmlns="http://www.w3.org/2000/svg" xmlns:xlink="http://www.w3.org/1999/xlink" width="58" height="58" viewBox="0 0 58 58">
  <defs>
    <linearGradient id="linear-gradient" x1="0.843" y1="0.135" x2="0.206" y2="0.886" gradientUnits="objectBoundingBox">
      <stop offset="0" stop-color="#b6509e"/>
      <stop offset="1" stop-color="#2ebac6"/>
    </linearGradient>
    <linearGradient id="linear-gradient-2" x1="0.5" y1="1.142" x2="0.5" y2="-0.105" gradientUnits="objectBoundingBox">
      <stop offset="0" stop-color="#f9a606"/>
      <stop offset="1" stop-color="#fbcc5f"/>
    </linearGradient>
  </defs>
  <g id="ADAI" transform="translate(0 0.001)">
    <circle id="Ellipse_1585" cx="29" cy="29" r="29" transform="translate(0 0)" fill="#fff"/>
    <g id="Group_17823" transform="translate(0 -0.001)">
      <path id="Subtraction_108" d="M29,58a29.222,29.222,0,0,1-5.845-.589A28.985,28.985,0,0,1,.589,34.845a29.283,29.283,0,0,1,0-11.689A28.992,28.992,0,0,1,23.154.589a29.282,29.282,0,0,1,11.689,0A29,29,0,0,1,57.411,23.154a29.283,29.283,0,0,1,0,11.689A29,29,0,0,1,34.845,57.41,29.221,29.221,0,0,1,29,58ZM29,3.106a26.1,26.1,0,0,0-5.224.527A25.884,25.884,0,0,0,3.634,23.781a26.145,26.145,0,0,0,0,10.437A25.883,25.883,0,0,0,23.783,54.366a26.141,26.141,0,0,0,10.437,0A25.884,25.884,0,0,0,54.365,34.218a26.145,26.145,0,0,0,0-10.437A25.881,25.881,0,0,0,34.218,3.634,26.088,26.088,0,0,0,29,3.107Z" transform="translate(0 0.001)" fill="url(#linear-gradient)"/>
      <g id="Badge_Dai" transform="translate(6.732 6.732)">
        <circle id="Ellipse_1272" cx="22.268" cy="22.268" r="22.268" transform="translate(0 0)" fill="url(#linear-gradient-2)"/>
        <path id="Path_7539" d="M171.1,165.607h-2.643c-1.455-4.038-5.367-6.807-10.525-6.807h-8.484v6.807H146.5v2.442h2.947v2.56H146.5v2.442h2.947v6.725h8.484c5.1,0,8.981-2.746,10.473-6.725H171.1v-2.441H169a11.079,11.079,0,0,0,.082-1.321v-.059c0-.4-.023-.794-.059-1.18h2.086v-2.442Zm-19.277-4.632h6.109a8.33,8.33,0,0,1,7.9,4.624H151.822Zm6.109,16.6h-6.109v-4.535h13.992c-1.306,2.717-4.111,4.535-7.883,4.535Zm8.692-8.239a8.785,8.785,0,0,1-.089,1.262H151.822v-2.56h14.719a9.659,9.659,0,0,1,.082,1.24Z" transform="translate(-135.626 -147.013)" fill="#fff"/>
      </g>
    </g>
  </g>
</svg>
