<svg xmlns="http://www.w3.org/2000/svg" xmlns:xlink="http://www.w3.org/1999/xlink" width="58" height="58" viewBox="0 0 58 58">
  <defs>
    <linearGradient id="linear-gradient" x1="0.843" y1="0.135" x2="0.206" y2="0.886" gradientUnits="objectBoundingBox">
      <stop offset="0" stop-color="#b6509e"/>
      <stop offset="1" stop-color="#2ebac6"/>
    </linearGradient>
  </defs>
  <g id="AMWETH" transform="translate(0 0.001)">
    <circle id="Ellipse_1585" cx="29" cy="29" r="29" transform="translate(0 -0.001)" fill="#fff"/>
    <path id="Subtraction_108" d="M28.9,57.8a29.122,29.122,0,0,1-5.825-.587A28.885,28.885,0,0,1,.587,34.726a29.183,29.183,0,0,1,0-11.649A28.893,28.893,0,0,1,23.075.587a29.182,29.182,0,0,1,11.649,0,28.9,28.9,0,0,1,22.49,22.489,29.182,29.182,0,0,1,0,11.649,28.9,28.9,0,0,1-22.489,22.49A29.121,29.121,0,0,1,28.9,57.8ZM28.9,3.1a26.013,26.013,0,0,0-5.206.525A25.8,25.8,0,0,0,3.622,23.7a26.056,26.056,0,0,0,0,10.4A25.794,25.794,0,0,0,23.7,54.18a26.052,26.052,0,0,0,10.4,0A25.8,25.8,0,0,0,54.18,34.1a26.056,26.056,0,0,0,0-10.4A25.793,25.793,0,0,0,34.1,3.621,26,26,0,0,0,28.9,3.1Z" transform="translate(0 0)" fill="url(#linear-gradient)"/>
    <g id="Group_36867" transform="translate(13.688 12.822)">
      <g id="weth" transform="translate(0 0)">
        <g id="Group_36865" transform="translate(0 0)">
          <path id="Oval" d="M10.248,57.868c8.273,0,8.273-.123,9.676-.54,1.833-.544-5.176-5.4-9.676-5.4S2.1,53.261,2.1,54.9,5.748,57.868,10.248,57.868Z" transform="translate(-1.425 -25.626)"/>
          <path id="Oval-2" d="M28.394,7.784l.38.41-.333.45C17.653,23.232,11.437,29.837,8.8,28.951c-1.606-.54-3.217-2.162-4.828-4.519-.566-.828-1.1-1.7-1.581-2.568-.322-.578-.595-1.105-.736-1.4a3.5,3.5,0,0,1-.316-.919l-.007-.037c-.025-.13-.034-.171-.053-.242A14.709,14.709,0,0,1,22.661,2.643l.056.035a36.327,36.327,0,0,1,5.677,5.106ZM21.971,3.805A13.364,13.364,0,0,0,2.581,18.919c.029.11.042.172.073.331l.006.033a2.18,2.18,0,0,0,.212.6c.129.271.389.773.7,1.326.465.834.976,1.672,1.517,2.464,1.455,2.129,2.9,3.583,4.144,4,1.661.558,7.913-6.06,17.793-19.379a33.915,33.915,0,0,0-5.052-4.489Z" transform="translate(-0.786 -0.78)"/>
          <path id="Path" d="M23.243,5.1A13.364,13.364,0,0,0,3.853,20.21c.029.11.042.172.073.331l.006.033a2.18,2.18,0,0,0,.212.6c.129.271.389.773.7,1.326.465.834.976,1.672,1.517,2.464,1.455,2.129,2.9,3.583,4.144,4,1.661.558,7.913-6.06,17.794-19.379A33.914,33.914,0,0,0,23.243,5.1Z" transform="translate(-2.058 -2.07)" fill="#ec1c79"/>
          <path id="Oval-3" d="M20.737,35.439a14.7,14.7,0,1,1,14.7-14.7,14.7,14.7,0,0,1-14.7,14.7Zm0-1.349A13.354,13.354,0,1,0,7.382,20.736,13.354,13.354,0,0,0,20.737,34.09Z" transform="translate(-3.335 -3.333)"/>
          <path id="Path-2" d="M22.01,35.366A13.354,13.354,0,1,0,8.656,22.011,13.355,13.355,0,0,0,22.01,35.366Z" transform="translate(-4.609 -4.608)" fill="#fff"/>
          <path id="WETH-2" d="M13.529,34.9l-1.768-5.326H13.31l.921,3.059,1.02-3.075h1.261l1.02,3.075.921-3.059h1.518L18.2,34.9H16.928l-1.065-3.044L14.805,34.9Zm7.024-.038V29.572h4.254v1.246H22v.8h2.538v1.156H22v.839h2.84V34.86Zm6.33,0v-4H25.3V29.572h4.638v1.284H28.35v4Zm3.694,0V29.572h1.466v1.979h1.881V29.572H35.39V34.86H33.924v-2.01H32.043v2.01Z" transform="translate(-6.117 -14.759)" fill-rule="evenodd"/>
          <path id="Line" d="M2.1,25.142a.755.755,0,1,1,.676-1.351L4.93,24.87a.755.755,0,1,1-.676,1.351Z" transform="translate(-1.22 -11.92)"/>
          <path id="Line-2" d="M1.538,32.066a.755.755,0,1,1,.632-1.372l2.158,1A.755.755,0,1,1,3.7,33.062Z" transform="translate(-0.909 -15.265)"/>
        </g>
      </g>
    </g>
  </g>
</svg>
