<svg xmlns="http://www.w3.org/2000/svg" width="58" height="58" viewBox="0 0 58 58">
  <g id="DAI" transform="translate(-0.319)">
    <circle id="Ellipse_8" data-name="Ellipse 8" cx="29" cy="29" r="29" transform="translate(0.319)" fill="#f4b731"/>
    <path id="Path_52" data-name="Path 52" d="M11.149,8h11.94c7.262,0,12.767,3.856,14.815,9.465h3.719v3.391H38.688a15.612,15.612,0,0,1,.086,1.636v.084a15.314,15.314,0,0,1-.109,1.841h2.959v3.389h-3.79c-2.1,5.532-7.563,9.35-14.742,9.35H11.149v-9.35H7V24.417h4.149V20.856H7V17.467h4.149Zm3.337,19.807v6.309h8.6c5.31,0,9.254-2.528,11.089-6.309H14.486ZM35.2,24.417H14.486V20.856H35.205a12.988,12.988,0,0,1,.115,1.72v.082a12.638,12.638,0,0,1-.122,1.757ZM23.091,11.034c5.332,0,9.288,2.595,11.112,6.429H14.486V11.036h8.6Z" transform="translate(5.761 6.578)" fill="#fff" fill-rule="evenodd"/>
  </g>
</svg>
