<svg id="DPI" xmlns="http://www.w3.org/2000/svg" width="58" height="58" viewBox="0 0 58 58">
  <path id="Path_56" data-name="Path 56" d="M29,58A29,29,0,1,0,0,29,29,29,0,0,0,29,58Z" fill="#8150e6"/>
  <path id="Path_57" data-name="Path 57" d="M69.722,47.33,49.277,27.175,37.677,25,30.862,50.81l17.11,16.965A28.9,28.9,0,0,0,69.722,47.33Z" transform="translate(-12.962 -10.5)" fill="#3c176b"/>
  <path id="Path_58" data-name="Path 58" d="M42.712,50.8V34.85h4.06a10.812,10.812,0,0,1,3.77.58,6.282,6.282,0,0,1,2.9,1.6c.145.145.29.145.29.29a12.066,12.066,0,0,0-1.885-6.235,15.764,15.764,0,0,0-3.77-.58H38.362V50.8C39.812,50.8,41.262,50.945,42.712,50.8Z" transform="translate(-16.112 -12.81)" fill="#6b42bd"/>
  <path id="Path_59" data-name="Path 59" d="M59.783,38.46a12.469,12.469,0,0,0-2.755-4.205,10.556,10.556,0,0,0-4.06-2.465c-.29-.145-.58-.145-.87-.29a12.065,12.065,0,0,1,1.885,6.235c.725.725,1.16,3.335,1.45,4.35L42.963,53.54V51.22c-1.45.145-2.9,0-4.35,0v6.67h9.28a12.374,12.374,0,0,0,4.5-.87,12.361,12.361,0,0,0,4.2-2.465,11.241,11.241,0,0,0,3.045-4.2,13.451,13.451,0,0,0,1.16-6.09A16.628,16.628,0,0,0,59.783,38.46Z" transform="translate(-16.217 -13.23)" fill="#9b74ec"/>
  <path id="Path_60" data-name="Path 60" d="M38.3,45.475a12.213,12.213,0,0,0,3.915-.58,8.269,8.269,0,0,0,3.19-1.6,8.966,8.966,0,0,0,2.175-2.9,9.493,9.493,0,0,0,.725-4.205,11.283,11.283,0,0,0-.725-4.06,8.378,8.378,0,0,0-1.885-2.9,7.107,7.107,0,0,0-2.9-1.595,14.693,14.693,0,0,0-3.77-.58h-4.06V45.33H38.3ZM30.612,23h9.715a13.92,13.92,0,0,1,4.785.87,14.5,14.5,0,0,1,4.06,2.465,12.468,12.468,0,0,1,2.755,4.2,14.771,14.771,0,0,1,1.015,5.8,15.721,15.721,0,0,1-1.16,6.09,15.7,15.7,0,0,1-3.045,4.2A12.361,12.361,0,0,1,44.532,49.1a12.974,12.974,0,0,1-4.495.87h-9.28V23Z" transform="translate(-12.857 -9.66)" fill="#fff"/>
</svg>
