<svg id="MATIC" xmlns="http://www.w3.org/2000/svg" width="58" height="58" viewBox="0 0 58 58">
  <circle id="Ellipse_11" data-name="Ellipse 11" cx="29" cy="29" r="29" fill="#6f41d8"/>
  <path id="Path_53" data-name="Path 53" d="M33.354,16.912a2.355,2.355,0,0,0-2.273,0l-5.218,3L22.32,21.864l-5.218,3a2.345,2.345,0,0,1-2.273,0l-4.147-2.345a2.233,2.233,0,0,1-1.136-1.889V16a2.1,2.1,0,0,1,1.136-1.889l4.078-2.28a2.352,2.352,0,0,1,2.277,0l4.078,2.28A2.235,2.235,0,0,1,22.253,16v3L25.8,16.978v-3a2.1,2.1,0,0,0-1.136-1.889L17.1,7.794a2.345,2.345,0,0,0-2.273,0l-7.692,4.3A2.1,2.1,0,0,0,6,13.982v8.664a2.1,2.1,0,0,0,1.136,1.89l7.692,4.3a2.355,2.355,0,0,0,2.273,0L22.32,25.9l3.543-2.019,5.218-2.931a2.345,2.345,0,0,1,2.273,0l4.08,2.28a2.229,2.229,0,0,1,1.136,1.889v4.625a2.1,2.1,0,0,1-1.136,1.889l-4.078,2.345a2.349,2.349,0,0,1-2.275,0L27,31.7a2.235,2.235,0,0,1-1.138-1.889v-3L22.32,28.835v3a2.1,2.1,0,0,0,1.136,1.889l7.692,4.3a2.345,2.345,0,0,0,2.273,0l7.692-4.3a2.233,2.233,0,0,0,1.136-1.889V23.167a2.1,2.1,0,0,0-1.136-1.889l-7.757-4.366Z" transform="translate(4.875 6.094)" fill="#fff"/>
</svg>
