<svg id="sVSQ" xmlns="http://www.w3.org/2000/svg" width="58" height="58" viewBox="0 0 58 58">
  <circle id="Ellipse_3" data-name="Ellipse 3" cx="29" cy="29" r="29" fill="#31cb3b"/>
  <g id="VESQ_Logo_1_" data-name="VESQ Logo (1)" transform="translate(16.04 10.396)">
    <path id="Path_12" data-name="Path 12" d="M194.031,350.42H189.9a2.3,2.3,0,0,0-1.613.678l-3.074,3.055a2.293,2.293,0,0,1-3.245,0h0a2.294,2.294,0,0,0-3.915,1.624V366.4a2.291,2.291,0,0,0,3.915,1.621l13.688-13.685a2.294,2.294,0,0,0-1.621-3.917Z" transform="translate(-170.841 -331.923)" fill="#fff"/>
    <path id="Path_13" data-name="Path 13" d="M182.014,362.747l5.312,5.312a2.294,2.294,0,0,1,0,3.245l-5.312,5.312a2.291,2.291,0,0,1-3.915-1.621V364.37a2.294,2.294,0,0,1,3.915-1.624Z" transform="translate(-170.878 -340.517)" fill="#fff"/>
    <path id="Path_14" data-name="Path 14" d="M152.9,298.292h4.135a2.3,2.3,0,0,0,1.621-.67l3.063-3.063a2.293,2.293,0,0,1,3.245,0h0a2.3,2.3,0,0,0,3.917-1.624V282.31a2.294,2.294,0,0,0-3.917-1.621L151.28,294.375a2.3,2.3,0,0,0,1.624,3.917Z" transform="translate(-150.61 -280.016)" fill="#fff"/>
    <path id="Path_15" data-name="Path 15" d="M188.436,294.559l-5.323-5.312a2.294,2.294,0,0,1,0-3.245l5.312-5.312a2.294,2.294,0,0,1,3.917,1.621v10.624a2.3,2.3,0,0,1-3.907,1.624Z" transform="translate(-174.078 -280.016)" fill="#fff"/>
  </g>
</svg>
