<svg xmlns="http://www.w3.org/2000/svg" width="87" height="58" viewBox="0 0 87 58">
  <g id="VSQ_DAI" transform="translate(-6499 1520)">
    <g id="Group_26" data-name="Group 26" transform="translate(6499 -1520)">
      <g id="dai" transform="translate(28.681)">
        <circle id="Ellipse_8" data-name="Ellipse 8" cx="29" cy="29" r="29" transform="translate(0.319)" fill="#f4b731"/>
        <path id="Path_52" data-name="Path 52" d="M11.149,8h11.94c7.262,0,12.767,3.856,14.815,9.465h3.719v3.391H38.688a15.612,15.612,0,0,1,.086,1.636v.084a15.314,15.314,0,0,1-.109,1.841h2.959v3.389h-3.79c-2.1,5.532-7.563,9.35-14.742,9.35H11.149v-9.35H7V24.417h4.149V20.856H7V17.467h4.149Zm3.337,19.807v6.309h8.6c5.31,0,9.254-2.528,11.089-6.309H14.486ZM35.2,24.417H14.486V20.856H35.205a12.988,12.988,0,0,1,.115,1.72v.082a12.638,12.638,0,0,1-.122,1.757ZM23.091,11.034c5.332,0,9.288,2.595,11.112,6.429H14.486V11.036h8.6Z" transform="translate(5.761 6.578)" fill="#fff" fill-rule="evenodd"/>
      </g>
      <circle id="Ellipse_3" data-name="Ellipse 3" cx="29" cy="29" r="29" fill="#31cb9e"/>
      <g id="VESQ_Logo_1_" data-name="VESQ Logo (1)" transform="translate(16.04 10.396)">
        <path id="Path_12" data-name="Path 12" d="M194.031,350.42H189.9a2.3,2.3,0,0,0-1.613.678l-3.074,3.055a2.293,2.293,0,0,1-3.245,0h0a2.294,2.294,0,0,0-3.915,1.624V366.4a2.291,2.291,0,0,0,3.915,1.621l13.688-13.685a2.294,2.294,0,0,0-1.621-3.917Z" transform="translate(-170.841 -331.923)" fill="#fff"/>
        <path id="Path_13" data-name="Path 13" d="M182.014,362.747l5.312,5.312a2.294,2.294,0,0,1,0,3.245l-5.312,5.312a2.291,2.291,0,0,1-3.915-1.621V364.37a2.294,2.294,0,0,1,3.915-1.624Z" transform="translate(-170.878 -340.517)" fill="#fff"/>
        <path id="Path_14" data-name="Path 14" d="M152.9,298.292h4.135a2.3,2.3,0,0,0,1.621-.67l3.063-3.063a2.293,2.293,0,0,1,3.245,0h0a2.3,2.3,0,0,0,3.917-1.624V282.31a2.294,2.294,0,0,0-3.917-1.621L151.28,294.375a2.3,2.3,0,0,0,1.624,3.917Z" transform="translate(-150.61 -280.016)" fill="#fff"/>
        <path id="Path_15" data-name="Path 15" d="M188.436,294.559l-5.323-5.312a2.294,2.294,0,0,1,0-3.245l5.312-5.312a2.294,2.294,0,0,1,3.917,1.621v10.624a2.3,2.3,0,0,1-3.907,1.624Z" transform="translate(-174.078 -280.016)" fill="#fff"/>
      </g>
    </g>
  </g>
</svg>
