<svg id="WBTC" xmlns="http://www.w3.org/2000/svg" width="58" height="58" viewBox="0 0 58 58">
  <circle id="Ellipse_12" data-name="Ellipse 12" cx="29" cy="29" r="29" fill="#201a2d"/>
  <g id="Group_25" data-name="Group 25" transform="translate(9.063 9.063)">
    <path id="Path_54" data-name="Path 54" d="M36.026,12.043l-1.088,1.087a15.4,15.4,0,0,1,0,20.779L36.026,35a16.951,16.951,0,0,0,0-22.979v.025Zm-22.87.094a15.4,15.4,0,0,1,20.779,0l1.087-1.087a16.95,16.95,0,0,0-22.979,0ZM12.137,33.92a15.4,15.4,0,0,1,0-20.768L11.05,12.065a16.95,16.95,0,0,0,0,22.979l1.087-1.124Zm21.783,1a15.4,15.4,0,0,1-20.778,0l-1.087,1.088a16.951,16.951,0,0,0,22.979,0ZM30.4,19.906c-.218-2.269-2.175-3.03-4.651-3.263V13.519H23.835v3.067h-1.53V13.519h-1.9v3.147H16.524v2.048s1.414-.025,1.392,0A.99.99,0,0,1,19,19.554v8.613a.671.671,0,0,1-.232.468.663.663,0,0,1-.493.167c.025.022-1.392,0-1.392,0l-.363,2.287H20.37v3.2h1.914v-3.15h1.53v3.136h1.918V31.111c3.234-.2,5.488-.993,5.771-4.02.228-2.436-.917-3.524-2.748-3.962A2.959,2.959,0,0,0,30.4,19.906Zm-2.683,6.808c0,2.378-4.074,2.106-5.372,2.106V24.6c1.3,0,5.372-.37,5.372,2.113Zm-.888-5.945c0,2.175-3.4,1.91-4.481,1.91V18.844C23.429,18.844,26.83,18.5,26.83,20.769Z" transform="translate(-3.731 -3.731)" fill="#fff"/>
    <path id="Path_55" data-name="Path 55" d="M24.8,44.607A19.8,19.8,0,1,1,44.607,24.8,19.8,19.8,0,0,1,24.8,44.607Zm0-38.063a18.248,18.248,0,1,0,12.915,5.342A18.248,18.248,0,0,0,24.8,6.544Z" transform="translate(-5 -5)" fill="#fff"/>
  </g>
</svg>
